<mxfile host="Electron" modified="2023-09-28T17:43:37.209Z" agent="Mozilla/5.0 (Windows NT 10.0; Win64; x64) AppleWebKit/537.36 (KHTML, like Gecko) draw.io/21.6.8 Chrome/114.0.5735.289 Electron/25.5.0 Safari/537.36" etag="PIFclBPwN2z_wGQ_a9M1" version="21.6.8" type="device">
  <diagram name="PÃ¡gina-1" id="nxS8HGZ0IeBK3D557BIX">
    <mxGraphModel dx="2132" dy="2620" grid="1" gridSize="10" guides="1" tooltips="1" connect="1" arrows="1" fold="1" page="1" pageScale="1" pageWidth="827" pageHeight="1169" math="0" shadow="0">
      <root>
        <mxCell id="0" />
        <mxCell id="1" parent="0" />
        <mxCell id="4cveyR9p0KgrtFj3zUqN-5" value="ClienteEmail" style="swimlane;fontStyle=1;align=center;verticalAlign=top;childLayout=stackLayout;horizontal=1;startSize=26;horizontalStack=0;resizeParent=1;resizeParentMax=0;resizeLast=0;collapsible=1;marginBottom=0;whiteSpace=wrap;html=1;" vertex="1" parent="1">
          <mxGeometry x="50" y="240" width="330" height="220" as="geometry" />
        </mxCell>
        <mxCell id="4cveyR9p0KgrtFj3zUqN-6" value="- connectableEmailService: ConnectableEmailService&lt;br&gt;- usuario: Usuario&lt;br&gt;- mailManager: MailManager" style="text;strokeColor=none;fillColor=none;align=left;verticalAlign=top;spacingLeft=4;spacingRight=4;overflow=hidden;rotatable=0;points=[[0,0.5],[1,0.5]];portConstraint=eastwest;whiteSpace=wrap;html=1;" vertex="1" parent="4cveyR9p0KgrtFj3zUqN-5">
          <mxGeometry y="26" width="330" height="54" as="geometry" />
        </mxCell>
        <mxCell id="4cveyR9p0KgrtFj3zUqN-7" value="" style="line;strokeWidth=1;fillColor=none;align=left;verticalAlign=middle;spacingTop=-1;spacingLeft=3;spacingRight=3;rotatable=0;labelPosition=right;points=[];portConstraint=eastwest;strokeColor=inherit;" vertex="1" parent="4cveyR9p0KgrtFj3zUqN-5">
          <mxGeometry y="80" width="330" height="8" as="geometry" />
        </mxCell>
        <mxCell id="4cveyR9p0KgrtFj3zUqN-8" value="+ &lt;u&gt;new(ConnectableEmailService, MailManager, Usuario)&lt;/u&gt;&lt;br&gt;+ conectar()&lt;br&gt;+ borrarCorreo(Correo)&lt;br&gt;+ contarBorrados(): int&lt;br&gt;+ contarInbox(): int&lt;br&gt;+ eliminarBorrado(Correo)&lt;br&gt;+ recibirNuevos()&lt;br&gt;+ enviarCorreo(Correo)" style="text;strokeColor=none;fillColor=none;align=left;verticalAlign=top;spacingLeft=4;spacingRight=4;overflow=hidden;rotatable=0;points=[[0,0.5],[1,0.5]];portConstraint=eastwest;whiteSpace=wrap;html=1;" vertex="1" parent="4cveyR9p0KgrtFj3zUqN-5">
          <mxGeometry y="88" width="330" height="132" as="geometry" />
        </mxCell>
        <mxCell id="4cveyR9p0KgrtFj3zUqN-9" value="&lt;i&gt;Usuario&lt;/i&gt;" style="swimlane;fontStyle=0;childLayout=stackLayout;horizontal=1;startSize=26;fillColor=none;horizontalStack=0;resizeParent=1;resizeParentMax=0;resizeLast=0;collapsible=1;marginBottom=0;whiteSpace=wrap;html=1;" vertex="1" parent="1">
          <mxGeometry x="100" y="600" width="140" height="70" as="geometry" />
        </mxCell>
        <mxCell id="4cveyR9p0KgrtFj3zUqN-10" value="+ getName(): String&lt;br&gt;+ getPassword(): String" style="text;strokeColor=none;fillColor=none;align=left;verticalAlign=top;spacingLeft=4;spacingRight=4;overflow=hidden;rotatable=0;points=[[0,0.5],[1,0.5]];portConstraint=eastwest;whiteSpace=wrap;html=1;" vertex="1" parent="4cveyR9p0KgrtFj3zUqN-9">
          <mxGeometry y="26" width="140" height="44" as="geometry" />
        </mxCell>
        <mxCell id="4cveyR9p0KgrtFj3zUqN-13" value="UsuarioImpl" style="swimlane;fontStyle=1;align=center;verticalAlign=top;childLayout=stackLayout;horizontal=1;startSize=26;horizontalStack=0;resizeParent=1;resizeParentMax=0;resizeLast=0;collapsible=1;marginBottom=0;whiteSpace=wrap;html=1;" vertex="1" parent="1">
          <mxGeometry x="60" y="740" width="160" height="130" as="geometry" />
        </mxCell>
        <mxCell id="4cveyR9p0KgrtFj3zUqN-14" value="- name: String&lt;br&gt;- password: String" style="text;strokeColor=none;fillColor=none;align=left;verticalAlign=top;spacingLeft=4;spacingRight=4;overflow=hidden;rotatable=0;points=[[0,0.5],[1,0.5]];portConstraint=eastwest;whiteSpace=wrap;html=1;" vertex="1" parent="4cveyR9p0KgrtFj3zUqN-13">
          <mxGeometry y="26" width="160" height="44" as="geometry" />
        </mxCell>
        <mxCell id="4cveyR9p0KgrtFj3zUqN-15" value="" style="line;strokeWidth=1;fillColor=none;align=left;verticalAlign=middle;spacingTop=-1;spacingLeft=3;spacingRight=3;rotatable=0;labelPosition=right;points=[];portConstraint=eastwest;strokeColor=inherit;" vertex="1" parent="4cveyR9p0KgrtFj3zUqN-13">
          <mxGeometry y="70" width="160" height="8" as="geometry" />
        </mxCell>
        <mxCell id="4cveyR9p0KgrtFj3zUqN-16" value="+ &lt;u&gt;new(String, String)&lt;/u&gt;&lt;br&gt;+ getName(): String&lt;br&gt;+ getPassword(): String" style="text;strokeColor=none;fillColor=none;align=left;verticalAlign=top;spacingLeft=4;spacingRight=4;overflow=hidden;rotatable=0;points=[[0,0.5],[1,0.5]];portConstraint=eastwest;whiteSpace=wrap;html=1;" vertex="1" parent="4cveyR9p0KgrtFj3zUqN-13">
          <mxGeometry y="78" width="160" height="52" as="geometry" />
        </mxCell>
        <mxCell id="4cveyR9p0KgrtFj3zUqN-17" value="Extends" style="endArrow=block;endSize=16;endFill=0;html=1;rounded=0;exitX=0.5;exitY=0;exitDx=0;exitDy=0;entryX=0.502;entryY=1.053;entryDx=0;entryDy=0;entryPerimeter=0;" edge="1" parent="1" source="4cveyR9p0KgrtFj3zUqN-13" target="4cveyR9p0KgrtFj3zUqN-10">
          <mxGeometry width="160" relative="1" as="geometry">
            <mxPoint x="60" y="640" as="sourcePoint" />
            <mxPoint x="220" y="640" as="targetPoint" />
          </mxGeometry>
        </mxCell>
        <mxCell id="4cveyR9p0KgrtFj3zUqN-21" value="" style="endArrow=classic;html=1;rounded=0;entryX=0.5;entryY=0;entryDx=0;entryDy=0;exitX=0.427;exitY=1.009;exitDx=0;exitDy=0;exitPerimeter=0;endFill=1;" edge="1" parent="1" source="4cveyR9p0KgrtFj3zUqN-8" target="4cveyR9p0KgrtFj3zUqN-9">
          <mxGeometry relative="1" as="geometry">
            <mxPoint x="100" y="530" as="sourcePoint" />
            <mxPoint x="260" y="530" as="targetPoint" />
          </mxGeometry>
        </mxCell>
        <mxCell id="4cveyR9p0KgrtFj3zUqN-23" value="usuario" style="edgeLabel;resizable=0;html=1;align=right;verticalAlign=bottom;" connectable="0" vertex="1" parent="4cveyR9p0KgrtFj3zUqN-21">
          <mxGeometry x="1" relative="1" as="geometry">
            <mxPoint y="-110" as="offset" />
          </mxGeometry>
        </mxCell>
        <mxCell id="4cveyR9p0KgrtFj3zUqN-25" value="&amp;lt;&amp;lt;interface&amp;gt;&amp;gt;&lt;br&gt;EmailService" style="swimlane;fontStyle=1;align=center;verticalAlign=top;childLayout=stackLayout;horizontal=1;startSize=40;horizontalStack=0;resizeParent=1;resizeParentMax=0;resizeLast=0;collapsible=1;marginBottom=0;whiteSpace=wrap;html=1;" vertex="1" parent="1">
          <mxGeometry x="830" y="90" width="250" height="76" as="geometry" />
        </mxCell>
        <mxCell id="4cveyR9p0KgrtFj3zUqN-28" value="+ recibirNuevos(Usuario): Collection&amp;lt;Correo&amp;gt;&lt;br&gt;+ enviar(Correo)" style="text;strokeColor=none;fillColor=none;align=left;verticalAlign=top;spacingLeft=4;spacingRight=4;overflow=hidden;rotatable=0;points=[[0,0.5],[1,0.5]];portConstraint=eastwest;whiteSpace=wrap;html=1;" vertex="1" parent="4cveyR9p0KgrtFj3zUqN-25">
          <mxGeometry y="40" width="250" height="36" as="geometry" />
        </mxCell>
        <mxCell id="4cveyR9p0KgrtFj3zUqN-29" value="&amp;lt;&amp;lt;interface&amp;gt;&amp;gt;&lt;br&gt;Servidor" style="swimlane;fontStyle=1;align=center;verticalAlign=top;childLayout=stackLayout;horizontal=1;startSize=40;horizontalStack=0;resizeParent=1;resizeParentMax=0;resizeLast=0;collapsible=1;marginBottom=0;whiteSpace=wrap;html=1;" vertex="1" parent="1">
          <mxGeometry x="1160" y="83" width="250" height="90" as="geometry" />
        </mxCell>
        <mxCell id="4cveyR9p0KgrtFj3zUqN-30" value="+ tazaDeTransferencia(): float&lt;br&gt;+ resetear()&lt;br&gt;+ realizarBackup()" style="text;strokeColor=none;fillColor=none;align=left;verticalAlign=top;spacingLeft=4;spacingRight=4;overflow=hidden;rotatable=0;points=[[0,0.5],[1,0.5]];portConstraint=eastwest;whiteSpace=wrap;html=1;" vertex="1" parent="4cveyR9p0KgrtFj3zUqN-29">
          <mxGeometry y="40" width="250" height="50" as="geometry" />
        </mxCell>
        <mxCell id="4cveyR9p0KgrtFj3zUqN-31" value="&amp;lt;&amp;lt;interface&amp;gt;&amp;gt;&lt;br&gt;Connectable" style="swimlane;fontStyle=1;align=center;verticalAlign=top;childLayout=stackLayout;horizontal=1;startSize=40;horizontalStack=0;resizeParent=1;resizeParentMax=0;resizeLast=0;collapsible=1;marginBottom=0;whiteSpace=wrap;html=1;" vertex="1" parent="1">
          <mxGeometry x="510" y="90" width="250" height="70" as="geometry" />
        </mxCell>
        <mxCell id="4cveyR9p0KgrtFj3zUqN-32" value="+ conectar(Usuario)" style="text;strokeColor=none;fillColor=none;align=left;verticalAlign=top;spacingLeft=4;spacingRight=4;overflow=hidden;rotatable=0;points=[[0,0.5],[1,0.5]];portConstraint=eastwest;whiteSpace=wrap;html=1;" vertex="1" parent="4cveyR9p0KgrtFj3zUqN-31">
          <mxGeometry y="40" width="250" height="30" as="geometry" />
        </mxCell>
        <mxCell id="4cveyR9p0KgrtFj3zUqN-33" value="&amp;lt;&amp;lt;interface&amp;gt;&amp;gt;&lt;br&gt;ConnectableEmailService" style="swimlane;fontStyle=1;align=center;verticalAlign=top;childLayout=stackLayout;horizontal=1;startSize=40;horizontalStack=0;resizeParent=1;resizeParentMax=0;resizeLast=0;collapsible=1;marginBottom=0;whiteSpace=wrap;html=1;" vertex="1" parent="1">
          <mxGeometry x="660" y="260" width="250" height="90" as="geometry" />
        </mxCell>
        <mxCell id="4cveyR9p0KgrtFj3zUqN-34" value="+ tazaDeTransferencia(): float&lt;br&gt;+ resetear()&lt;br&gt;+ realizarBackup()" style="text;strokeColor=none;fillColor=none;align=left;verticalAlign=top;spacingLeft=4;spacingRight=4;overflow=hidden;rotatable=0;points=[[0,0.5],[1,0.5]];portConstraint=eastwest;whiteSpace=wrap;html=1;" vertex="1" parent="4cveyR9p0KgrtFj3zUqN-33">
          <mxGeometry y="40" width="250" height="50" as="geometry" />
        </mxCell>
        <mxCell id="4cveyR9p0KgrtFj3zUqN-35" value="" style="endArrow=block;dashed=1;endFill=0;endSize=12;html=1;rounded=0;exitX=0.5;exitY=0;exitDx=0;exitDy=0;entryX=0.482;entryY=1.068;entryDx=0;entryDy=0;entryPerimeter=0;" edge="1" parent="1" source="4cveyR9p0KgrtFj3zUqN-33" target="4cveyR9p0KgrtFj3zUqN-32">
          <mxGeometry width="160" relative="1" as="geometry">
            <mxPoint x="620" y="210" as="sourcePoint" />
            <mxPoint x="780" y="210" as="targetPoint" />
          </mxGeometry>
        </mxCell>
        <mxCell id="4cveyR9p0KgrtFj3zUqN-36" value="" style="endArrow=block;dashed=1;endFill=0;endSize=12;html=1;rounded=0;exitX=0.544;exitY=0.011;exitDx=0;exitDy=0;entryX=0.564;entryY=1.122;entryDx=0;entryDy=0;entryPerimeter=0;exitPerimeter=0;" edge="1" parent="1" source="4cveyR9p0KgrtFj3zUqN-33" target="4cveyR9p0KgrtFj3zUqN-28">
          <mxGeometry width="160" relative="1" as="geometry">
            <mxPoint x="795" y="270" as="sourcePoint" />
            <mxPoint x="641" y="172" as="targetPoint" />
          </mxGeometry>
        </mxCell>
        <mxCell id="4cveyR9p0KgrtFj3zUqN-38" value="" style="endArrow=classic;html=1;rounded=0;entryX=-0.019;entryY=0.184;entryDx=0;entryDy=0;exitX=1.01;exitY=0.324;exitDx=0;exitDy=0;exitPerimeter=0;endFill=1;entryPerimeter=0;" edge="1" parent="1" source="4cveyR9p0KgrtFj3zUqN-8" target="4cveyR9p0KgrtFj3zUqN-34">
          <mxGeometry relative="1" as="geometry">
            <mxPoint x="201" y="471" as="sourcePoint" />
            <mxPoint x="180" y="610" as="targetPoint" />
          </mxGeometry>
        </mxCell>
        <mxCell id="4cveyR9p0KgrtFj3zUqN-39" value="usuario" style="edgeLabel;resizable=0;html=1;align=right;verticalAlign=bottom;" connectable="0" vertex="1" parent="4cveyR9p0KgrtFj3zUqN-38">
          <mxGeometry x="1" relative="1" as="geometry">
            <mxPoint y="-110" as="offset" />
          </mxGeometry>
        </mxCell>
        <mxCell id="4cveyR9p0KgrtFj3zUqN-40" value="connectableEmailService" style="edgeLabel;html=1;align=center;verticalAlign=middle;resizable=0;points=[];" vertex="1" connectable="0" parent="4cveyR9p0KgrtFj3zUqN-38">
          <mxGeometry x="-0.0691" y="5" relative="1" as="geometry">
            <mxPoint x="-58" y="-7" as="offset" />
          </mxGeometry>
        </mxCell>
        <mxCell id="4cveyR9p0KgrtFj3zUqN-45" value="AuthenticatedEmailService" style="swimlane;fontStyle=1;align=center;verticalAlign=top;childLayout=stackLayout;horizontal=1;startSize=26;horizontalStack=0;resizeParent=1;resizeParentMax=0;resizeLast=0;collapsible=1;marginBottom=0;whiteSpace=wrap;html=1;" vertex="1" parent="1">
          <mxGeometry x="1080" y="250" width="240" height="78" as="geometry" />
        </mxCell>
        <mxCell id="4cveyR9p0KgrtFj3zUqN-48" value="+ &lt;u&gt;new(Authenticator)&lt;/u&gt;&lt;br&gt;+ conectar(): String&lt;br&gt;+&amp;nbsp;isAuthenticated&lt;span style=&quot;background-color: initial;&quot;&gt;(): boolean&lt;/span&gt;" style="text;strokeColor=none;fillColor=none;align=left;verticalAlign=top;spacingLeft=4;spacingRight=4;overflow=hidden;rotatable=0;points=[[0,0.5],[1,0.5]];portConstraint=eastwest;whiteSpace=wrap;html=1;" vertex="1" parent="4cveyR9p0KgrtFj3zUqN-45">
          <mxGeometry y="26" width="240" height="52" as="geometry" />
        </mxCell>
        <mxCell id="4cveyR9p0KgrtFj3zUqN-49" value="" style="endArrow=block;dashed=1;endFill=0;endSize=12;html=1;rounded=0;exitX=0;exitY=0.955;exitDx=0;exitDy=0;entryX=0.999;entryY=0.21;entryDx=0;entryDy=0;entryPerimeter=0;exitPerimeter=0;" edge="1" parent="1" target="4cveyR9p0KgrtFj3zUqN-34">
          <mxGeometry width="160" relative="1" as="geometry">
            <mxPoint x="1080" y="318.02" as="sourcePoint" />
            <mxPoint x="981" y="180" as="targetPoint" />
          </mxGeometry>
        </mxCell>
        <mxCell id="4cveyR9p0KgrtFj3zUqN-54" value="&amp;lt;&amp;lt;interface&amp;gt;&amp;gt;&lt;br&gt;Authenticator" style="swimlane;fontStyle=1;align=center;verticalAlign=top;childLayout=stackLayout;horizontal=1;startSize=40;horizontalStack=0;resizeParent=1;resizeParentMax=0;resizeLast=0;collapsible=1;marginBottom=0;whiteSpace=wrap;html=1;" vertex="1" parent="1">
          <mxGeometry x="1480" y="270" width="250" height="90" as="geometry" />
        </mxCell>
        <mxCell id="4cveyR9p0KgrtFj3zUqN-55" value="+ authenticate(Usuario)&lt;br&gt;+ isAuthenticated(): boolean" style="text;strokeColor=none;fillColor=none;align=left;verticalAlign=top;spacingLeft=4;spacingRight=4;overflow=hidden;rotatable=0;points=[[0,0.5],[1,0.5]];portConstraint=eastwest;whiteSpace=wrap;html=1;" vertex="1" parent="4cveyR9p0KgrtFj3zUqN-54">
          <mxGeometry y="40" width="250" height="50" as="geometry" />
        </mxCell>
        <mxCell id="4cveyR9p0KgrtFj3zUqN-56" value="" style="endArrow=classic;html=1;rounded=0;entryX=-0.01;entryY=0.173;entryDx=0;entryDy=0;exitX=1.007;exitY=0.308;exitDx=0;exitDy=0;exitPerimeter=0;endFill=1;entryPerimeter=0;" edge="1" parent="1" target="4cveyR9p0KgrtFj3zUqN-55">
          <mxGeometry relative="1" as="geometry">
            <mxPoint x="1320" y="292.01599999999996" as="sourcePoint" />
            <mxPoint x="1475.82" y="316.15" as="targetPoint" />
          </mxGeometry>
        </mxCell>
        <mxCell id="4cveyR9p0KgrtFj3zUqN-58" value="authenticator" style="edgeLabel;html=1;align=center;verticalAlign=middle;resizable=0;points=[];" vertex="1" connectable="0" parent="4cveyR9p0KgrtFj3zUqN-56">
          <mxGeometry x="-0.0691" y="5" relative="1" as="geometry">
            <mxPoint x="-24" y="-19" as="offset" />
          </mxGeometry>
        </mxCell>
        <mxCell id="4cveyR9p0KgrtFj3zUqN-60" value="&amp;lt;&amp;lt;interface&amp;gt;&amp;gt;&lt;br&gt;MailManager" style="swimlane;fontStyle=1;align=center;verticalAlign=top;childLayout=stackLayout;horizontal=1;startSize=40;horizontalStack=0;resizeParent=1;resizeParentMax=0;resizeLast=0;collapsible=1;marginBottom=0;whiteSpace=wrap;html=1;" vertex="1" parent="1">
          <mxGeometry x="577" y="490" width="250" height="110" as="geometry" />
        </mxCell>
        <mxCell id="4cveyR9p0KgrtFj3zUqN-61" value="+ contarBorrados(): int&lt;br&gt;+ contarInbox(): int&lt;br&gt;+ eliminarBorrado(Correo)&lt;br&gt;+ borrarCorreo(Correo)" style="text;strokeColor=none;fillColor=none;align=left;verticalAlign=top;spacingLeft=4;spacingRight=4;overflow=hidden;rotatable=0;points=[[0,0.5],[1,0.5]];portConstraint=eastwest;whiteSpace=wrap;html=1;" vertex="1" parent="4cveyR9p0KgrtFj3zUqN-60">
          <mxGeometry y="40" width="250" height="70" as="geometry" />
        </mxCell>
        <mxCell id="4cveyR9p0KgrtFj3zUqN-62" value="" style="endArrow=classic;html=1;rounded=0;entryX=0.008;entryY=0.272;entryDx=0;entryDy=0;exitX=1.01;exitY=0.324;exitDx=0;exitDy=0;exitPerimeter=0;endFill=1;entryPerimeter=0;" edge="1" parent="1" target="4cveyR9p0KgrtFj3zUqN-61">
          <mxGeometry relative="1" as="geometry">
            <mxPoint x="380" y="432" as="sourcePoint" />
            <mxPoint x="652" y="370" as="targetPoint" />
          </mxGeometry>
        </mxCell>
        <mxCell id="4cveyR9p0KgrtFj3zUqN-64" value="mailManager" style="edgeLabel;html=1;align=center;verticalAlign=middle;resizable=0;points=[];" vertex="1" connectable="0" parent="4cveyR9p0KgrtFj3zUqN-62">
          <mxGeometry x="-0.0691" y="5" relative="1" as="geometry">
            <mxPoint x="-35" y="-42" as="offset" />
          </mxGeometry>
        </mxCell>
        <mxCell id="4cveyR9p0KgrtFj3zUqN-65" value="MailManagerImpl" style="swimlane;fontStyle=1;align=center;verticalAlign=top;childLayout=stackLayout;horizontal=1;startSize=26;horizontalStack=0;resizeParent=1;resizeParentMax=0;resizeLast=0;collapsible=1;marginBottom=0;whiteSpace=wrap;html=1;" vertex="1" parent="1">
          <mxGeometry x="1000" y="494" width="160" height="102" as="geometry" />
        </mxCell>
        <mxCell id="4cveyR9p0KgrtFj3zUqN-68" value="+ contarBorrados(): int&lt;br&gt;+ contarInbox(): int&lt;br&gt;+ eliminarBorrado(Correo)&lt;br&gt;+ borrarCorreo(Correo)" style="text;strokeColor=none;fillColor=none;align=left;verticalAlign=top;spacingLeft=4;spacingRight=4;overflow=hidden;rotatable=0;points=[[0,0.5],[1,0.5]];portConstraint=eastwest;whiteSpace=wrap;html=1;" vertex="1" parent="4cveyR9p0KgrtFj3zUqN-65">
          <mxGeometry y="26" width="160" height="76" as="geometry" />
        </mxCell>
        <mxCell id="4cveyR9p0KgrtFj3zUqN-69" value="" style="endArrow=block;dashed=1;endFill=0;endSize=12;html=1;rounded=0;exitX=-0.002;exitY=0.407;exitDx=0;exitDy=0;entryX=0.999;entryY=0.21;entryDx=0;entryDy=0;entryPerimeter=0;exitPerimeter=0;" edge="1" parent="1" source="4cveyR9p0KgrtFj3zUqN-68">
          <mxGeometry width="160" relative="1" as="geometry">
            <mxPoint x="1000" y="548.51" as="sourcePoint" />
            <mxPoint x="830" y="541.49" as="targetPoint" />
          </mxGeometry>
        </mxCell>
        <mxCell id="4cveyR9p0KgrtFj3zUqN-70" value="&lt;i&gt;Correo&lt;/i&gt;" style="swimlane;fontStyle=0;childLayout=stackLayout;horizontal=1;startSize=26;fillColor=none;horizontalStack=0;resizeParent=1;resizeParentMax=0;resizeLast=0;collapsible=1;marginBottom=0;whiteSpace=wrap;html=1;" vertex="1" parent="1">
          <mxGeometry x="790" y="710" width="160" height="80" as="geometry" />
        </mxCell>
        <mxCell id="4cveyR9p0KgrtFj3zUqN-71" value="+&amp;nbsp;getAsunto&lt;span style=&quot;background-color: initial;&quot;&gt;(): String&lt;/span&gt;&lt;br&gt;+&amp;nbsp;getDestinatario(): String&lt;br&gt;+&amp;nbsp;getCuerpo&lt;span style=&quot;background-color: initial;&quot;&gt;(): String&lt;/span&gt;" style="text;strokeColor=none;fillColor=none;align=left;verticalAlign=top;spacingLeft=4;spacingRight=4;overflow=hidden;rotatable=0;points=[[0,0.5],[1,0.5]];portConstraint=eastwest;whiteSpace=wrap;html=1;" vertex="1" parent="4cveyR9p0KgrtFj3zUqN-70">
          <mxGeometry y="26" width="160" height="54" as="geometry" />
        </mxCell>
        <mxCell id="4cveyR9p0KgrtFj3zUqN-72" value="CorreoImpl" style="swimlane;fontStyle=1;align=center;verticalAlign=top;childLayout=stackLayout;horizontal=1;startSize=26;horizontalStack=0;resizeParent=1;resizeParentMax=0;resizeLast=0;collapsible=1;marginBottom=0;whiteSpace=wrap;html=1;" vertex="1" parent="1">
          <mxGeometry x="740" y="910" width="260" height="160" as="geometry" />
        </mxCell>
        <mxCell id="4cveyR9p0KgrtFj3zUqN-73" value="- asunto: String&lt;br&gt;- destinatario: String&lt;br&gt;- cuerpo: String" style="text;strokeColor=none;fillColor=none;align=left;verticalAlign=top;spacingLeft=4;spacingRight=4;overflow=hidden;rotatable=0;points=[[0,0.5],[1,0.5]];portConstraint=eastwest;whiteSpace=wrap;html=1;" vertex="1" parent="4cveyR9p0KgrtFj3zUqN-72">
          <mxGeometry y="26" width="260" height="54" as="geometry" />
        </mxCell>
        <mxCell id="4cveyR9p0KgrtFj3zUqN-74" value="" style="line;strokeWidth=1;fillColor=none;align=left;verticalAlign=middle;spacingTop=-1;spacingLeft=3;spacingRight=3;rotatable=0;labelPosition=right;points=[];portConstraint=eastwest;strokeColor=inherit;" vertex="1" parent="4cveyR9p0KgrtFj3zUqN-72">
          <mxGeometry y="80" width="260" height="8" as="geometry" />
        </mxCell>
        <mxCell id="4cveyR9p0KgrtFj3zUqN-75" value="+ &lt;u&gt;new(String, String, String)&lt;/u&gt;&lt;br&gt;+ getAsunto(): String&lt;br&gt;+ getDestinatario(): String&lt;br&gt;+ getCuerpo(): String" style="text;strokeColor=none;fillColor=none;align=left;verticalAlign=top;spacingLeft=4;spacingRight=4;overflow=hidden;rotatable=0;points=[[0,0.5],[1,0.5]];portConstraint=eastwest;whiteSpace=wrap;html=1;" vertex="1" parent="4cveyR9p0KgrtFj3zUqN-72">
          <mxGeometry y="88" width="260" height="72" as="geometry" />
        </mxCell>
        <mxCell id="4cveyR9p0KgrtFj3zUqN-76" value="Extends" style="endArrow=block;endSize=16;endFill=0;html=1;rounded=0;exitX=0.5;exitY=0;exitDx=0;exitDy=0;entryX=0.502;entryY=1.053;entryDx=0;entryDy=0;entryPerimeter=0;" edge="1" parent="1" source="4cveyR9p0KgrtFj3zUqN-72" target="4cveyR9p0KgrtFj3zUqN-71">
          <mxGeometry width="160" relative="1" as="geometry">
            <mxPoint x="790" y="730" as="sourcePoint" />
            <mxPoint x="950" y="730" as="targetPoint" />
          </mxGeometry>
        </mxCell>
        <mxCell id="4cveyR9p0KgrtFj3zUqN-77" value="borrados" style="endArrow=block;endFill=1;html=1;align=left;verticalAlign=top;rounded=0;entryX=0.564;entryY=-0.054;entryDx=0;entryDy=0;entryPerimeter=0;exitX=0.845;exitY=1.019;exitDx=0;exitDy=0;exitPerimeter=0;" edge="1" parent="1" source="4cveyR9p0KgrtFj3zUqN-61" target="4cveyR9p0KgrtFj3zUqN-70">
          <mxGeometry x="-0.7932" y="16" relative="1" as="geometry">
            <mxPoint x="770" y="630" as="sourcePoint" />
            <mxPoint x="930" y="630" as="targetPoint" />
            <mxPoint y="-1" as="offset" />
          </mxGeometry>
        </mxCell>
        <mxCell id="4cveyR9p0KgrtFj3zUqN-78" value="*" style="edgeLabel;resizable=0;html=1;align=left;verticalAlign=bottom;" connectable="0" vertex="1" parent="4cveyR9p0KgrtFj3zUqN-77">
          <mxGeometry x="-1" relative="1" as="geometry">
            <mxPoint x="92" y="89" as="offset" />
          </mxGeometry>
        </mxCell>
        <mxCell id="4cveyR9p0KgrtFj3zUqN-79" value="inbox" style="endArrow=block;endFill=1;html=1;align=left;verticalAlign=top;rounded=0;entryX=0.106;entryY=0.009;entryDx=0;entryDy=0;entryPerimeter=0;exitX=0.845;exitY=1.019;exitDx=0;exitDy=0;exitPerimeter=0;" edge="1" parent="1" target="4cveyR9p0KgrtFj3zUqN-70">
          <mxGeometry x="-0.7932" y="16" relative="1" as="geometry">
            <mxPoint x="710" y="600" as="sourcePoint" />
            <mxPoint x="802" y="705" as="targetPoint" />
            <mxPoint y="-1" as="offset" />
          </mxGeometry>
        </mxCell>
        <mxCell id="4cveyR9p0KgrtFj3zUqN-80" value="*" style="edgeLabel;resizable=0;html=1;align=left;verticalAlign=bottom;" connectable="0" vertex="1" parent="4cveyR9p0KgrtFj3zUqN-79">
          <mxGeometry x="-1" relative="1" as="geometry">
            <mxPoint x="92" y="89" as="offset" />
          </mxGeometry>
        </mxCell>
        <mxCell id="4cveyR9p0KgrtFj3zUqN-81" value="PopEmailService" style="swimlane;fontStyle=1;align=center;verticalAlign=top;childLayout=stackLayout;horizontal=1;startSize=26;horizontalStack=0;resizeParent=1;resizeParentMax=0;resizeLast=0;collapsible=1;marginBottom=0;whiteSpace=wrap;html=1;" vertex="1" parent="1">
          <mxGeometry x="1270" y="420" width="270" height="78" as="geometry" />
        </mxCell>
        <mxCell id="4cveyR9p0KgrtFj3zUqN-82" value="+ &lt;u&gt;new(Authenticator)&lt;/u&gt;&lt;br&gt;+ recibirNuevos(Usuario): Collection&amp;lt;Correo&amp;gt;&lt;br&gt;+ enviar(Correo)" style="text;strokeColor=none;fillColor=none;align=left;verticalAlign=top;spacingLeft=4;spacingRight=4;overflow=hidden;rotatable=0;points=[[0,0.5],[1,0.5]];portConstraint=eastwest;whiteSpace=wrap;html=1;" vertex="1" parent="4cveyR9p0KgrtFj3zUqN-81">
          <mxGeometry y="26" width="270" height="52" as="geometry" />
        </mxCell>
        <mxCell id="4cveyR9p0KgrtFj3zUqN-83" value="Extends" style="endArrow=block;endSize=16;endFill=0;html=1;rounded=0;entryX=0.5;entryY=1.038;entryDx=0;entryDy=0;entryPerimeter=0;exitX=0.5;exitY=0;exitDx=0;exitDy=0;" edge="1" parent="1" source="4cveyR9p0KgrtFj3zUqN-81" target="4cveyR9p0KgrtFj3zUqN-48">
          <mxGeometry width="160" relative="1" as="geometry">
            <mxPoint x="1260" y="450" as="sourcePoint" />
            <mxPoint x="1420" y="450" as="targetPoint" />
          </mxGeometry>
        </mxCell>
      </root>
    </mxGraphModel>
  </diagram>
</mxfile>
